Coordinates
version=1
nRows=27
nColumns=12
inDegrees=yes

Units are S.I. units (second, meters, Newtons, ...)
Angles are in degrees

endheader
time	SC_y	SC_z	SC_x	AC_y	AC_z	AC_x	GH_y	GH_z	GH_yy	EL_x	PS_y
       0.0               -20.9          16.44          14.01          51.55         -18.05          8.419          85.13         -15.48         -115.1          16.94          147.5
   0.02616               -20.9          16.44          14.01          51.55         -18.05           8.42          85.12         -15.47         -115.1          16.95          147.5
   0.05232               -20.9          16.44          14.01          51.55         -18.05           8.42          85.11         -15.46         -115.1          16.96          147.5
   0.07848               -20.9          16.44          14.01          51.55         -18.05           8.42          85.11         -15.45         -115.1          16.97          147.5
    0.1046               -20.9          16.44          14.01          51.55         -18.05          8.421           85.1         -15.44         -115.1          16.97          147.4
    0.1308               -20.9          16.45          14.01          51.55         -18.05          8.421          85.09         -15.43         -115.1          16.98          147.4
     0.157              -20.89          16.45          14.01          51.55         -18.04          8.422          85.08         -15.42         -115.1          16.99          147.4
    0.1831              -20.89          16.45          14.01          51.55         -18.04          8.422          85.07         -15.41         -115.1           17.0          147.4
    0.2093              -20.89          16.45           14.0          51.54         -18.04          8.423          85.06         -15.39         -115.1          17.01          147.3
    0.2354              -20.89          16.46           14.0          51.54         -18.04          8.424          85.05         -15.38         -115.1          17.03          147.3
    0.2616              -20.89          16.46           14.0          51.54         -18.04          8.424          85.04         -15.36         -115.1          17.04          147.3
    0.2878              -20.89          16.46           14.0          51.54         -18.04          8.425          85.02         -15.35         -115.1          17.05          147.3
    0.3139              -20.89          16.47           14.0          51.54         -18.04          8.426          85.01         -15.33         -115.1          17.07          147.2
    0.3401              -20.89          16.47           14.0          51.54         -18.04          8.427          84.99         -15.31         -115.1          17.08          147.2
    0.3662              -20.89          16.48          13.99          51.54         -18.03          8.428          84.98         -15.29         -115.1           17.1          147.1
    0.3924              -20.89          16.48          13.99          51.53         -18.03          8.429          84.96         -15.27         -115.1          17.12          147.1
    0.4185              -20.89          16.49          13.99          51.53         -18.03           8.43          84.94         -15.25         -115.1          17.14          147.1
    0.4447              -20.88          16.49          13.99          51.53         -18.03          8.431          84.92         -15.22         -115.1          17.16          147.0
    0.4709              -20.88           16.5          13.98          51.53         -18.03          8.432           84.9         -15.19         -115.1          17.18          146.9
     0.497              -20.88          16.51          13.98          51.52         -18.02          8.433          84.87         -15.16         -115.1          17.21          146.9
    0.5232              -20.88          16.52          13.98          51.52         -18.02          8.435          84.84         -15.12         -115.1          17.24          146.8
    0.5493              -20.88          16.52          13.97          51.52         -18.02          8.437          84.81         -15.09         -115.1          17.27          146.7
    0.5755              -20.87          16.53          13.97          51.51         -18.01          8.438          84.78         -15.04         -115.1          17.31          146.7
    0.6017              -20.87          16.54          13.97          51.51         -18.01           8.44          84.74          -15.0         -115.1          17.34          146.6
    0.6278              -20.87          16.56          13.96           51.5         -18.01          8.443           84.7         -14.95         -115.1          17.39          146.5
     0.654              -20.87          16.57          13.96           51.5          -18.0          8.445          84.65         -14.89         -115.1          17.43          146.4
    0.6801              -20.86          16.58          13.95          51.49          -18.0          8.448           84.6         -14.82         -115.1          17.49          146.2
